<mxfile host="app.diagrams.net" modified="2023-04-11T12:45:17.251Z" agent="Mozilla/5.0 (Windows NT 10.0; Win64; x64; rv:109.0) Gecko/20100101 Firefox/111.0" etag="W0MxLFMXy0isWkjS09Xv" version="21.1.5" type="device">
  <diagram name="Page-1" id="rCZO0sZoIwfLGOyDGwlE">
    <mxGraphModel dx="794" dy="547" grid="1" gridSize="10" guides="1" tooltips="1" connect="1" arrows="1" fold="1" page="1" pageScale="1" pageWidth="827" pageHeight="1169" math="0" shadow="0">
      <root>
        <mxCell id="0" />
        <mxCell id="1" parent="0" />
        <mxCell id="n92j5arPPQIFSXqalS8V-1" value="AIR CARAIBES" style="shape=process;whiteSpace=wrap;html=1;backgroundOutline=1;" vertex="1" parent="1">
          <mxGeometry x="500" y="10" width="120" height="60" as="geometry" />
        </mxCell>
        <mxCell id="n92j5arPPQIFSXqalS8V-2" value="MENU" style="shape=document;whiteSpace=wrap;html=1;boundedLbl=1;" vertex="1" parent="1">
          <mxGeometry x="10" y="150" width="120" height="80" as="geometry" />
        </mxCell>
        <mxCell id="n92j5arPPQIFSXqalS8V-3" value="LANGUE" style="shape=document;whiteSpace=wrap;html=1;boundedLbl=1;" vertex="1" parent="1">
          <mxGeometry x="650" y="150" width="120" height="80" as="geometry" />
        </mxCell>
        <mxCell id="n92j5arPPQIFSXqalS8V-4" value="M&#39;ENREGISTRER EN LIGNE" style="shape=document;whiteSpace=wrap;html=1;boundedLbl=1;" vertex="1" parent="1">
          <mxGeometry x="490" y="150" width="120" height="80" as="geometry" />
        </mxCell>
        <mxCell id="n92j5arPPQIFSXqalS8V-5" value="GERER MES RESERVATIONS" style="shape=document;whiteSpace=wrap;html=1;boundedLbl=1;" vertex="1" parent="1">
          <mxGeometry x="330" y="150" width="120" height="80" as="geometry" />
        </mxCell>
        <mxCell id="n92j5arPPQIFSXqalS8V-6" value="RESERVER UN VOL" style="shape=document;whiteSpace=wrap;html=1;boundedLbl=1;" vertex="1" parent="1">
          <mxGeometry x="160" y="150" width="120" height="80" as="geometry" />
        </mxCell>
        <mxCell id="n92j5arPPQIFSXqalS8V-7" value="MODE SOMBRE" style="shape=document;whiteSpace=wrap;html=1;boundedLbl=1;" vertex="1" parent="1">
          <mxGeometry x="1100" y="150" width="120" height="80" as="geometry" />
        </mxCell>
        <mxCell id="n92j5arPPQIFSXqalS8V-8" value="MON COMPTE" style="shape=document;whiteSpace=wrap;html=1;boundedLbl=1;" vertex="1" parent="1">
          <mxGeometry x="960" y="150" width="120" height="80" as="geometry" />
        </mxCell>
        <mxCell id="n92j5arPPQIFSXqalS8V-9" value="STATUT DES VOLS" style="shape=document;whiteSpace=wrap;html=1;boundedLbl=1;" vertex="1" parent="1">
          <mxGeometry x="820" y="150" width="120" height="80" as="geometry" />
        </mxCell>
        <mxCell id="n92j5arPPQIFSXqalS8V-14" value="FIDELITE ET PROFESSIONNELS" style="shape=tape;whiteSpace=wrap;html=1;" vertex="1" parent="1">
          <mxGeometry x="550" y="280" width="120" height="100" as="geometry" />
        </mxCell>
        <mxCell id="n92j5arPPQIFSXqalS8V-15" value="PROMOTIONS EN COURS" style="shape=tape;whiteSpace=wrap;html=1;" vertex="1" parent="1">
          <mxGeometry x="420" y="280" width="120" height="100" as="geometry" />
        </mxCell>
        <mxCell id="n92j5arPPQIFSXqalS8V-16" value="VIP SERVICES" style="shape=tape;whiteSpace=wrap;html=1;" vertex="1" parent="1">
          <mxGeometry x="280" y="280" width="120" height="100" as="geometry" />
        </mxCell>
        <mxCell id="n92j5arPPQIFSXqalS8V-18" value="DESTINATIONS" style="shape=tape;whiteSpace=wrap;html=1;" vertex="1" parent="1">
          <mxGeometry x="140" y="280" width="120" height="100" as="geometry" />
        </mxCell>
        <mxCell id="n92j5arPPQIFSXqalS8V-19" value="INFORMATIONS PATIQUES" style="shape=tape;whiteSpace=wrap;html=1;" vertex="1" parent="1">
          <mxGeometry x="10" y="280" width="120" height="110" as="geometry" />
        </mxCell>
        <mxCell id="n92j5arPPQIFSXqalS8V-20" value="" style="endArrow=none;html=1;rounded=0;" edge="1" parent="1" source="n92j5arPPQIFSXqalS8V-19" target="n92j5arPPQIFSXqalS8V-2">
          <mxGeometry width="50" height="50" relative="1" as="geometry">
            <mxPoint x="45" y="290" as="sourcePoint" />
            <mxPoint x="95" y="240" as="targetPoint" />
          </mxGeometry>
        </mxCell>
        <mxCell id="n92j5arPPQIFSXqalS8V-21" value="" style="endArrow=none;html=1;rounded=0;" edge="1" parent="1">
          <mxGeometry width="50" height="50" relative="1" as="geometry">
            <mxPoint x="70" y="260" as="sourcePoint" />
            <mxPoint x="600" y="260" as="targetPoint" />
          </mxGeometry>
        </mxCell>
        <mxCell id="n92j5arPPQIFSXqalS8V-24" value="" style="endArrow=none;html=1;rounded=0;" edge="1" parent="1" source="n92j5arPPQIFSXqalS8V-18">
          <mxGeometry width="50" height="50" relative="1" as="geometry">
            <mxPoint x="150" y="310" as="sourcePoint" />
            <mxPoint x="200" y="260" as="targetPoint" />
          </mxGeometry>
        </mxCell>
        <mxCell id="n92j5arPPQIFSXqalS8V-25" value="" style="endArrow=none;html=1;rounded=0;" edge="1" parent="1">
          <mxGeometry width="50" height="50" relative="1" as="geometry">
            <mxPoint x="345" y="280" as="sourcePoint" />
            <mxPoint x="345" y="260" as="targetPoint" />
          </mxGeometry>
        </mxCell>
        <mxCell id="n92j5arPPQIFSXqalS8V-34" value="" style="endArrow=none;html=1;rounded=0;" edge="1" parent="1">
          <mxGeometry width="50" height="50" relative="1" as="geometry">
            <mxPoint x="480" y="280" as="sourcePoint" />
            <mxPoint x="480" y="260" as="targetPoint" />
            <Array as="points" />
          </mxGeometry>
        </mxCell>
        <mxCell id="n92j5arPPQIFSXqalS8V-35" value="" style="endArrow=none;html=1;rounded=0;" edge="1" parent="1">
          <mxGeometry width="50" height="50" relative="1" as="geometry">
            <mxPoint x="600" y="280" as="sourcePoint" />
            <mxPoint x="600" y="260" as="targetPoint" />
          </mxGeometry>
        </mxCell>
        <mxCell id="n92j5arPPQIFSXqalS8V-38" value="" style="endArrow=none;html=1;rounded=0;" edge="1" parent="1">
          <mxGeometry width="50" height="50" relative="1" as="geometry">
            <mxPoint x="60" y="120" as="sourcePoint" />
            <mxPoint x="1180" y="120" as="targetPoint" />
          </mxGeometry>
        </mxCell>
        <mxCell id="n92j5arPPQIFSXqalS8V-40" value="" style="endArrow=none;html=1;rounded=0;" edge="1" parent="1">
          <mxGeometry width="50" height="50" relative="1" as="geometry">
            <mxPoint x="60" y="150" as="sourcePoint" />
            <mxPoint x="60" y="120" as="targetPoint" />
          </mxGeometry>
        </mxCell>
        <mxCell id="n92j5arPPQIFSXqalS8V-41" value="" style="endArrow=none;html=1;rounded=0;" edge="1" parent="1">
          <mxGeometry width="50" height="50" relative="1" as="geometry">
            <mxPoint x="219.5" y="150" as="sourcePoint" />
            <mxPoint x="219.5" y="120" as="targetPoint" />
          </mxGeometry>
        </mxCell>
        <mxCell id="n92j5arPPQIFSXqalS8V-44" value="" style="endArrow=none;html=1;rounded=0;" edge="1" parent="1">
          <mxGeometry width="50" height="50" relative="1" as="geometry">
            <mxPoint x="389.5" y="150" as="sourcePoint" />
            <mxPoint x="389.5" y="120" as="targetPoint" />
          </mxGeometry>
        </mxCell>
        <mxCell id="n92j5arPPQIFSXqalS8V-45" value="" style="endArrow=none;html=1;rounded=0;" edge="1" parent="1">
          <mxGeometry width="50" height="50" relative="1" as="geometry">
            <mxPoint x="879.5" y="150" as="sourcePoint" />
            <mxPoint x="879.5" y="120" as="targetPoint" />
          </mxGeometry>
        </mxCell>
        <mxCell id="n92j5arPPQIFSXqalS8V-46" value="" style="endArrow=none;html=1;rounded=0;" edge="1" parent="1">
          <mxGeometry width="50" height="50" relative="1" as="geometry">
            <mxPoint x="710" y="150" as="sourcePoint" />
            <mxPoint x="710" y="120" as="targetPoint" />
          </mxGeometry>
        </mxCell>
        <mxCell id="n92j5arPPQIFSXqalS8V-47" value="" style="endArrow=none;html=1;rounded=0;" edge="1" parent="1">
          <mxGeometry width="50" height="50" relative="1" as="geometry">
            <mxPoint x="549.5" y="150" as="sourcePoint" />
            <mxPoint x="549.5" y="120" as="targetPoint" />
          </mxGeometry>
        </mxCell>
        <mxCell id="n92j5arPPQIFSXqalS8V-48" value="" style="endArrow=none;html=1;rounded=0;" edge="1" parent="1">
          <mxGeometry width="50" height="50" relative="1" as="geometry">
            <mxPoint x="1019.5" y="150" as="sourcePoint" />
            <mxPoint x="1019.5" y="120" as="targetPoint" />
          </mxGeometry>
        </mxCell>
        <mxCell id="n92j5arPPQIFSXqalS8V-49" value="" style="endArrow=none;html=1;rounded=0;" edge="1" parent="1">
          <mxGeometry width="50" height="50" relative="1" as="geometry">
            <mxPoint x="1180" y="150" as="sourcePoint" />
            <mxPoint x="1180" y="120" as="targetPoint" />
          </mxGeometry>
        </mxCell>
        <mxCell id="n92j5arPPQIFSXqalS8V-50" value="MODULES DE RESERVATIONS&lt;br&gt;&lt;br&gt;&lt;div align=&quot;left&quot;&gt;&lt;ul&gt;&lt;li&gt;BILLETS MULTI-DESTINATIONS&lt;/li&gt;&lt;li&gt;BILLETS PRIME&lt;/li&gt;&lt;li&gt;BILLETS ABONNES&lt;/li&gt;&lt;li&gt;BILLETS CIRCUIT&lt;br&gt;&lt;/li&gt;&lt;/ul&gt;&lt;/div&gt;" style="shape=dataStorage;whiteSpace=wrap;html=1;fixedSize=1;" vertex="1" parent="1">
          <mxGeometry x="85" y="530" width="270" height="115" as="geometry" />
        </mxCell>
        <mxCell id="n92j5arPPQIFSXqalS8V-53" value="" style="endArrow=classic;html=1;rounded=0;exitX=0.933;exitY=0.825;exitDx=0;exitDy=0;exitPerimeter=0;" edge="1" parent="1" source="n92j5arPPQIFSXqalS8V-6">
          <mxGeometry relative="1" as="geometry">
            <mxPoint x="270" y="330" as="sourcePoint" />
            <mxPoint x="270" y="440" as="targetPoint" />
          </mxGeometry>
        </mxCell>
        <mxCell id="n92j5arPPQIFSXqalS8V-54" value="ACCES" style="edgeLabel;resizable=0;html=1;align=center;verticalAlign=middle;" connectable="0" vertex="1" parent="n92j5arPPQIFSXqalS8V-53">
          <mxGeometry relative="1" as="geometry">
            <mxPoint y="-68" as="offset" />
          </mxGeometry>
        </mxCell>
        <mxCell id="n92j5arPPQIFSXqalS8V-55" value="" style="endArrow=classic;html=1;rounded=0;exitX=0.658;exitY=0.763;exitDx=0;exitDy=0;exitPerimeter=0;" edge="1" parent="1" source="n92j5arPPQIFSXqalS8V-5">
          <mxGeometry relative="1" as="geometry">
            <mxPoint x="410" y="260" as="sourcePoint" />
            <mxPoint x="410" y="440" as="targetPoint" />
          </mxGeometry>
        </mxCell>
        <mxCell id="n92j5arPPQIFSXqalS8V-56" value="ACCES" style="edgeLabel;resizable=0;html=1;align=center;verticalAlign=middle;" connectable="0" vertex="1" parent="n92j5arPPQIFSXqalS8V-55">
          <mxGeometry relative="1" as="geometry">
            <mxPoint x="1" y="-65" as="offset" />
          </mxGeometry>
        </mxCell>
        <mxCell id="n92j5arPPQIFSXqalS8V-58" value="" style="endArrow=classic;html=1;rounded=0;" edge="1" parent="1">
          <mxGeometry relative="1" as="geometry">
            <mxPoint x="230" y="645" as="sourcePoint" />
            <mxPoint x="230" y="690" as="targetPoint" />
          </mxGeometry>
        </mxCell>
        <mxCell id="n92j5arPPQIFSXqalS8V-72" value="&lt;br&gt;&lt;div&gt;SELECTIONNER VOL&lt;/div&gt;&lt;div&gt;(BAGAGES SUPP ,SIEGE, PLATS,&lt;br&gt;&lt;/div&gt;" style="ellipse;whiteSpace=wrap;html=1;" vertex="1" parent="1">
          <mxGeometry x="140" y="690" width="170" height="70" as="geometry" />
        </mxCell>
        <mxCell id="n92j5arPPQIFSXqalS8V-74" value="" style="endArrow=classic;html=1;rounded=0;" edge="1" parent="1">
          <mxGeometry width="50" height="50" relative="1" as="geometry">
            <mxPoint x="230" y="760" as="sourcePoint" />
            <mxPoint x="230" y="800" as="targetPoint" />
          </mxGeometry>
        </mxCell>
        <mxCell id="n92j5arPPQIFSXqalS8V-75" value="S&#39;IDENTIFIER" style="shape=parallelogram;perimeter=parallelogramPerimeter;whiteSpace=wrap;html=1;fixedSize=1;" vertex="1" parent="1">
          <mxGeometry x="165" y="800" width="120" height="60" as="geometry" />
        </mxCell>
        <mxCell id="n92j5arPPQIFSXqalS8V-76" value="PAYER" style="rounded=1;whiteSpace=wrap;html=1;" vertex="1" parent="1">
          <mxGeometry x="160" y="960" width="120" height="60" as="geometry" />
        </mxCell>
        <mxCell id="n92j5arPPQIFSXqalS8V-77" value="RENSEIGNER &lt;br&gt;LES COORDONNEES " style="ellipse;shape=cloud;whiteSpace=wrap;html=1;" vertex="1" parent="1">
          <mxGeometry y="850" width="170" height="80" as="geometry" />
        </mxCell>
        <mxCell id="n92j5arPPQIFSXqalS8V-79" value="" style="shape=partialRectangle;whiteSpace=wrap;html=1;bottom=0;right=0;fillColor=none;" vertex="1" parent="1">
          <mxGeometry x="60" y="840" width="110" height="20" as="geometry" />
        </mxCell>
        <mxCell id="n92j5arPPQIFSXqalS8V-82" value="" style="shape=partialRectangle;whiteSpace=wrap;html=1;top=0;left=0;fillColor=none;rotation=90;" vertex="1" parent="1">
          <mxGeometry x="70" y="910" width="80" height="100" as="geometry" />
        </mxCell>
        <mxCell id="n92j5arPPQIFSXqalS8V-83" value="PAS DE COMPTE OU &lt;br&gt;NON CONNECTE" style="text;html=1;align=center;verticalAlign=middle;resizable=0;points=[];autosize=1;strokeColor=none;fillColor=none;" vertex="1" parent="1">
          <mxGeometry y="800" width="140" height="40" as="geometry" />
        </mxCell>
        <mxCell id="n92j5arPPQIFSXqalS8V-85" value="" style="endArrow=classic;html=1;rounded=0;" edge="1" parent="1">
          <mxGeometry width="50" height="50" relative="1" as="geometry">
            <mxPoint x="60" y="840" as="sourcePoint" />
            <mxPoint x="60" y="860" as="targetPoint" />
          </mxGeometry>
        </mxCell>
        <mxCell id="n92j5arPPQIFSXqalS8V-86" value="" style="endArrow=classic;html=1;rounded=0;" edge="1" parent="1">
          <mxGeometry width="50" height="50" relative="1" as="geometry">
            <mxPoint x="134.5" y="1000" as="sourcePoint" />
            <mxPoint x="160" y="1000" as="targetPoint" />
            <Array as="points">
              <mxPoint x="160" y="1000" />
            </Array>
          </mxGeometry>
        </mxCell>
        <mxCell id="n92j5arPPQIFSXqalS8V-87" value="" style="endArrow=classic;html=1;rounded=0;exitX=0.558;exitY=0.983;exitDx=0;exitDy=0;exitPerimeter=0;" edge="1" parent="1" source="n92j5arPPQIFSXqalS8V-75">
          <mxGeometry width="50" height="50" relative="1" as="geometry">
            <mxPoint x="230" y="920" as="sourcePoint" />
            <mxPoint x="230" y="960" as="targetPoint" />
          </mxGeometry>
        </mxCell>
      </root>
    </mxGraphModel>
  </diagram>
</mxfile>
